<svg id="Layer_1" data-name="Layer 1" xmlns="http://www.w3.org/2000/svg" viewBox="0 0 127.51 127.51"><title>lang</title><path d="M63.75,9.56c15.62,0,30.29,3.19,39.85,5.74,3.82,1,6.37,4.14,7,8.29a180.5,180.5,0,0,1,1,18.81c0,49.72-36.66,69.81-47.82,74.59C52.6,111.89,15.94,91.8,15.94,42.4a183.32,183.32,0,0,1,1-18.81,9.19,9.19,0,0,1,7-8.29c9.56-2.55,24.22-5.74,39.84-5.74m0-9.56A162.29,162.29,0,0,0,21.36,6.06,18.75,18.75,0,0,0,7.65,22.31,172.3,172.3,0,0,0,6.38,42.4c0,65.34,57.37,85.11,57.37,85.11s57.38-19.77,57.38-85.11a169.72,169.72,0,0,0-1.27-20.09,18.72,18.72,0,0,0-14-16.25A157.54,157.54,0,0,0,63.75,0Z"/><path d="M63.75,19.13S44.63,35.06,44.63,60.57c0,16.57,10.52,27.09,15.94,31.87V102h6.37V92.44c5.42-4.78,15.94-15.3,15.94-31.87C82.88,35.06,63.75,19.13,63.75,19.13Z"/></svg>