<svg id="Layer_1" data-name="Layer 1" xmlns="http://www.w3.org/2000/svg" viewBox="0 0 127.51 127.51"><title>lang</title><path d="M117.5,29.42,68.85,1.32a10.61,10.61,0,0,0-10.25,0L10,29.38a10.32,10.32,0,0,0-5.1,8.87V89.16A10.27,10.27,0,0,0,10,98l12.75,7.36c6.18,3,8.39,3,11.19,3,9.17,0,14.41-5.54,14.41-15.15V40.75a1.42,1.42,0,0,0-1.42-1.42H40.8a1.39,1.39,0,0,0-1.42,1.42V93.23c0,4.31-4.46,8.53-11.67,5l-13.34-7.7a1.48,1.48,0,0,1-.79-1.32V38.3a1.56,1.56,0,0,1,.79-1.37L63,8.88a1.4,1.4,0,0,1,1.52,0l48.6,28.05a1.53,1.53,0,0,1,.78,1.32V89.16a1.53,1.53,0,0,1-.73,1.32l-48.65,28.1a1.63,1.63,0,0,1-1.52,0l-12.51-7.4a1.11,1.11,0,0,0-1.17-.1,33.33,33.33,0,0,1-7.36,3.33c-.78.25-2,.74.44,2.11l16.23,9.61a10.21,10.21,0,0,0,10.25,0L117.5,98a10.25,10.25,0,0,0,5.1-8.87V38.3A10.26,10.26,0,0,0,117.5,29.42Z"/><path d="M103,76.48c0,10.59-8.83,16.67-24.23,16.67C57.48,93.15,53,83.39,53,75.2a1.37,1.37,0,0,1,1.38-1.37h6.32A1.38,1.38,0,0,1,62.09,75c.93,6.37,3.77,9.61,16.67,9.61,10.25,0,14.61-2.3,14.61-7.7,0-3.14-1.22-5.49-17.16-7.06C62.87,68.53,54.63,65.59,54.63,55c0-9.81,8.29-15.69,22.17-15.69,15.59,0,23.29,5.44,24.27,17a1.28,1.28,0,0,1-.34,1.08,1.44,1.44,0,0,1-1,.49H93.37A1.42,1.42,0,0,1,92,56.72c-1.52-6.72-5.25-8.88-15.2-8.88-11.18,0-12.51,3.87-12.51,6.82,0,3.53,1.52,4.56,16.68,6.52C95.87,63.19,103,66,103,76.48Z"/></svg>