<svg id="Layer_1" data-name="Layer 1" xmlns="http://www.w3.org/2000/svg" viewBox="0 0 127.51 127.51"><title>lang</title><circle cx="63.75" cy="63.75" r="13.08"/><path d="M127.51,63.75c0-8.82-9.77-16.64-26.84-21.49,4.26-17.22,2.38-29.6-5.19-34-3.17-1.85-7-2.2-11.35-1C78.05,8.84,71,13.46,63.75,20.58,56.49,13.46,49.46,8.84,43.38,7.21,39,6,35.2,6.39,32,8.24c-7.57,4.42-9.45,16.8-5.2,34C9.77,47.11,0,54.93,0,63.75s9.77,16.64,26.84,21.5c-4.26,17.22-2.38,29.6,5.19,34a12.81,12.81,0,0,0,6.54,1.7h0a19,19,0,0,0,4.8-.67c6.08-1.63,13.11-6.25,20.37-13.37,7.27,7.12,14.3,11.74,20.38,13.37,4.34,1.16,8.2.81,11.35-1,7.57-4.43,9.45-16.8,5.19-34C117.74,80.39,127.51,72.58,127.51,63.75Zm-6.54,0c0,5.44-8.64,11.36-22.07,15.19A134,134,0,0,0,93,63.75,134.35,134.35,0,0,0,98.9,48.57C112.33,52.4,121,58.32,121,63.75ZM70,89.79c-2,2.7-4.15,5.27-6.27,7.65-2.12-2.38-4.22-5-6.26-7.65C61.76,90,65.75,90,70,89.79ZM35,80.52c.94-3,2-6,3.28-9,1,1.86,2,3.67,2.94,5.4s2,3.39,3.14,5.24C41.12,81.7,38,81.16,35,80.52Zm9.36-35.14c-1.15,1.85-2.18,3.58-3.14,5.24s-2,3.53-2.94,5.4C37,53,35.92,50,35,47,38,46.35,41.12,45.81,44.34,45.38ZM85.81,63.75c-1.6,3.34-3.34,6.66-5.19,9.89s-3.7,6.22-5.78,9.33a154.76,154.76,0,0,1-22.17,0c-2.08-3.11-4-6.24-5.79-9.33s-3.59-6.55-5.19-9.89c1.6-3.33,3.34-6.65,5.19-9.89,1.76-3.07,3.7-6.21,5.78-9.33a157.87,157.87,0,0,1,22.18,0c2.08,3.12,4,6.26,5.78,9.33C82.47,57.09,84.21,60.42,85.81,63.75ZM83.17,82.13c1.15-1.85,2.18-3.57,3.13-5.24s2-3.54,3-5.4c1.24,3,2.33,6.06,3.28,9C89.52,81.16,86.39,81.7,83.17,82.13ZM86.3,50.62c-1-1.66-2-3.39-3.14-5.24,3.22.43,6.36,1,9.36,1.61-.94,3-2,6-3.27,9C88.27,54.15,87.3,52.37,86.3,50.62Zm8-9.95a132.81,132.81,0,0,0-15.81-2.39,134.68,134.68,0,0,0-10.23-13c6.46-6.37,12.51-10.44,17.54-11.78,2.61-.7,4.76-.58,6.36.36C96.85,16.61,97.67,27.08,94.32,40.67ZM63.75,37.6c-2,0-4.13,0-6.26.13,2-2.71,4.15-5.28,6.26-7.66C65.87,32.45,68,35,70,37.73,67.88,37.64,65.78,37.6,63.75,37.6ZM49,38.28a132.5,132.5,0,0,0-15.81,2.39c-3.35-13.59-2.53-24.06,2.14-26.78,1.6-.94,3.75-1.06,6.35-.36,5,1.34,11.08,5.41,17.54,11.77A136,136,0,0,0,49,38.28ZM33.19,86.83A130.46,130.46,0,0,0,49,89.23a134.63,134.63,0,0,0,10.22,13c-6.46,6.37-12.51,10.44-17.53,11.78-2.62.7-4.76.58-6.36-.36C30.66,110.9,29.84,100.42,33.19,86.83Zm45.32,2.4a130.77,130.77,0,0,0,15.81-2.4c3.35,13.6,2.53,24.07-2.14,26.79-1.61.94-3.75,1.06-6.36.36-5-1.34-11.08-5.41-17.54-11.78A133.14,133.14,0,0,0,78.51,89.23Zm-44-25.48a134,134,0,0,0-5.87,15.19C15.17,75.11,6.54,69.19,6.54,63.75S15.17,52.4,28.61,48.57A132.47,132.47,0,0,0,34.48,63.75Z"/></svg>